<svg width="77" height="26" viewBox="0 0 77 26" fill="none" xmlns="http://www.w3.org/2000/svg">
<path d="M38.4086 7.36642C37.9088 6.6922 37.2717 6.16281 36.4945 5.77825C35.7174 5.39369 34.8203 5.20142 33.8008 5.20142C32.4939 5.20142 31.3245 5.51855 30.2875 6.15532C29.2505 6.79208 28.4409 7.68605 27.8536 8.84222C27.2689 9.99838 26.9766 11.2869 26.9766 12.8276C26.9766 14.3683 27.2689 15.7118 27.8536 16.858C28.4384 18.0041 29.2505 18.8806 30.2875 19.4874C31.3245 20.0942 32.5064 20.3989 33.8283 20.3989C35.6899 20.3989 37.1792 19.7047 38.2912 18.3188V26.0049H42.3517V5.37372H38.8109L38.4086 7.36642ZM37.3716 15.8891C36.7194 16.6807 35.8448 17.0752 34.7504 17.0752C33.6559 17.0752 32.7788 16.6807 32.1166 15.8891C31.4544 15.1 31.1246 14.0412 31.1246 12.7702C31.1246 11.4991 31.4544 10.4728 32.1166 9.69373C32.7788 8.91463 33.6559 8.52258 34.7504 8.52258C35.8448 8.52258 36.7169 8.91213 37.3716 9.69373C38.0263 10.4753 38.3511 11.5291 38.3511 12.8001C38.3511 14.0712 38.0238 15.1025 37.3716 15.8916V15.8891Z" fill="#03181E"/>
<path d="M55.2174 7.22167C54.1604 5.87322 52.6737 5.199 50.7546 5.199C49.4502 5.199 48.2733 5.51364 47.2287 6.13792C46.1817 6.76469 45.3671 7.65117 44.7799 8.79485C44.1952 9.94103 43.9028 11.2445 43.9028 12.7678C43.9028 14.291 44.1952 15.6295 44.7799 16.7831C45.3646 17.9393 46.1767 18.8308 47.2138 19.4551C48.2508 20.0818 49.4227 20.394 50.7271 20.394C52.6662 20.394 54.2004 19.6548 55.3349 18.169L55.7372 20.2192H59.278V0H55.2174V7.22167ZM54.2954 15.9041C53.6432 16.6833 52.7686 17.0753 51.6741 17.0753C50.5796 17.0753 49.7026 16.6808 49.0404 15.8892C48.3782 15.1001 48.0484 14.0688 48.0484 12.7977C48.0484 11.5267 48.3782 10.4979 49.0404 9.7063C49.7026 8.91471 50.5796 8.52017 51.6741 8.52017C52.7686 8.52017 53.6407 8.91721 54.2954 9.7063C54.9476 10.4954 55.2749 11.5542 55.2749 12.8252C55.2749 14.0962 54.9476 15.1226 54.2954 15.9017V15.9041Z" fill="#03181E"/>
<path d="M72.6605 5.37372L72.2582 7.36642C71.7585 6.6922 71.1213 6.16281 70.3441 5.77825C69.567 5.39369 68.6699 5.20142 67.6504 5.20142C66.3435 5.20142 65.1741 5.51855 64.1371 6.15532C63.1001 6.79208 62.2905 7.68605 61.7033 8.84222C61.1185 9.99838 60.8262 11.2869 60.8262 12.8276C60.8262 14.3683 61.1185 15.7118 61.7033 16.858C62.288 18.0041 63.1001 18.8806 64.1371 19.4874C65.1741 20.0942 66.356 20.3989 67.6779 20.3989C69.5395 20.3989 71.0288 19.7047 72.1408 18.3188V26.0049H76.2013V5.37372H72.6605ZM71.2212 15.8891C70.569 16.6807 69.6944 17.0752 68.6 17.0752C67.5055 17.0752 66.6284 16.6807 65.9662 15.8891C65.304 15.1 64.9717 14.0412 64.9717 12.7702C64.9717 11.4991 65.3015 10.4728 65.9662 9.69373C66.6284 8.91463 67.5055 8.52258 68.6 8.52258C69.6944 8.52258 70.5665 8.91213 71.2212 9.69373C71.8734 10.4728 72.2007 11.5291 72.2007 12.8001C72.2007 14.0712 71.8734 15.1025 71.2212 15.8916V15.8891Z" fill="#03181E"/>
<path d="M18.0604 8.87266L14.5513 12.3794C14.3288 12.6017 14.3288 12.9622 14.5513 13.1846L18.0604 16.6913C18.2829 16.9137 18.6436 16.9137 18.8661 16.6913L22.3752 13.1846C22.5977 12.9622 22.5977 12.6017 22.3752 12.3794L18.8661 8.87266C18.6436 8.65031 18.2829 8.65031 18.0604 8.87266Z" fill="#03181E"/>
<path d="M5.80411 6.7444L4.65216 7.89557L0.166795 12.3804C-0.0555985 12.6026 -0.0555985 12.9622 0.166795 13.1845L2.06589 15.0823L10.8692 23.8796C11.0916 24.1019 11.4514 24.1019 11.6738 23.8796L16.9088 18.6482C17.1312 18.4259 17.1312 18.0663 16.9088 17.8441L12.2485 13.187C12.0261 12.9647 12.0261 12.6051 12.2485 12.3829L16.9088 7.72577C17.1312 7.50352 17.1312 7.14394 16.9088 6.92169L11.6738 1.68524C11.4514 1.46299 11.0916 1.46299 10.8692 1.68524L5.80661 6.7444H5.80411Z" fill="#03181E"/>
</svg>
